<svg width="36" height="32" viewBox="0 0 36 32" fill="none" xmlns="http://www.w3.org/2000/svg">
<path d="M35 8.5L33.5 7C32.1875 5.6875 30.1875 5.6875 28.875 7L24 11.875V8.25C24 7.5 23.625 6.6875 23.0625 6.125L17.875 0.9375C17.3125 0.375 16.5 0 15.75 0H2.9375C1.3125 0.0625 0 1.375 0 3.0625V29.0625C0 30.6875 1.3125 32 2.9375 32H21C22.625 32 24 30.6875 24 29.0625V24C24.375 23.6875 24.75 23.4375 25.125 23.0625L35 13.125C35.625 12.5 35.9375 11.6875 35.9375 10.8125C35.9375 9.9375 35.625 9.125 35 8.5ZM16 2.0625C16.125 2.125 16.3125 2.1875 16.4375 2.3125L21.6875 7.5625C21.8125 7.6875 21.875 7.875 21.9375 8.0625H16V2.0625ZM22 29.0625C22 29.5625 21.5 30.0625 21 30.0625H2.9375C2.4375 30.0625 1.9375 29.5625 1.9375 29.0625V3.0625C1.9375 2.5 2.4375 2 2.9375 2H14V8.5625C14 9.375 14.625 10 15.5 10H22V13.875L18.9375 16.875C17.0625 18.75 16 21.375 16 24C15.75 24 15.5 23.875 15.375 23.625C14.625 22.125 12.5 21.75 11.25 22.75L10.375 20.125C10.1875 19.5 9.625 19.125 9 19.125C8.3125 19.125 7.75 19.5 7.5625 20.125L6.4375 23.5625C6.3125 23.8125 6.0625 24 5.75 24H5C4.4375 24 4 24.5 4 25C4 25.5625 4.4375 26 5 26H5.75C6.9375 26 7.9375 25.3125 8.3125 24.1875L9 22.1875L10 25.375C10.3125 26.1875 11.4375 26.25 11.875 25.5L12.3125 24.5C12.5625 24 13.3125 24 13.625 24.5625C14.0625 25.4375 14.9375 26 16 26H18C19.375 26 20.6875 25.75 22 25.1875V29.0625ZM23.6875 21.625C22.375 22.9375 19.8125 24 18 24C18 21.875 18.8125 19.8125 20.375 18.3125L27.875 10.8125L31.1875 14.125L23.6875 21.625ZM33.625 11.6875L32.3125 13L29 9.6875L30.3125 8.375C30.8125 7.9375 31.5625 7.9375 32.0625 8.375L33.625 9.9375C34.0625 10.4375 34.0625 11.1875 33.625 11.6875Z" fill="#009CDE"/>
</svg>
