<svg width="24" height="32" viewBox="0 0 24 32" fill="none" xmlns="http://www.w3.org/2000/svg">
<path d="M23.0625 6.125L17.875 0.9375C17.3125 0.375 16.5 0 15.75 0H2.9375C1.3125 0.0625 0 1.375 0 3.0625V29.0625C0 30.6875 1.3125 32 2.9375 32H21C22.625 32 24 30.6875 24 29.0625V8.25C24 7.5 23.625 6.6875 23.0625 6.125ZM16 2.0625C16.125 2.125 16.3125 2.1875 16.4375 2.3125L21.6875 7.5625C21.8125 7.6875 21.875 7.875 21.9375 8.0625H16V2.0625ZM22 29.0625C22 29.5625 21.5 30.0625 21 30.0625H2.9375C2.4375 30.0625 1.9375 29.5625 1.9375 29.0625V3.0625C1.9375 2.5 2.4375 2 2.9375 2H14V8.5625C14 9.375 14.625 10 15.5 10H22V29.0625ZM10.6875 13.5625L6.4375 18.0625C5.9375 18.5625 5.8125 19.3125 6.125 20C6.375 20.625 7 21 7.6875 21H11V26.5C11 26.8125 11.1875 27 11.5 27H12.5C12.75 27 13 26.8125 13 26.5V21H16.25C16.9375 21 17.5625 20.625 17.8125 20C18.125 19.3125 18 18.5625 17.5 18.0625L13.25 13.5625C12.5625 12.875 11.375 12.875 10.6875 13.5625ZM8.3125 19L12 15.125L15.625 19H8.3125Z" fill="#009CDE"/>
</svg>
