<svg width="36" height="32" viewBox="0 0 36 32" fill="none" xmlns="http://www.w3.org/2000/svg">
<path d="M34 11.5625V2C34 1.5 33.5625 0 32 0C31.5 0 31.0625 0.1875 30.75 0.5L25.375 4.75C22.75 6.875 19.375 8 16 8H4C1.75 8 0 9.8125 0 12V18C0 20.25 1.75 22 4 22L3.9375 24C3.9375 26.5 4.5 28.875 5.5625 30.9375C5.875 31.625 6.5625 32 7.3125 32H13.9375C15.5625 32 16.5625 30.1875 15.5625 28.875C14.5625 27.5 13.9375 25.875 13.9375 24C13.9375 23.3125 14.0625 22.6875 14.1875 22H16C19.375 22 22.75 23.1875 25.375 25.3125L30.75 29.5625C31 29.8125 31.5625 30 31.9375 30C33.5 30 33.9375 28.625 33.9375 28V18.5C35.1875 17.8125 35.9375 16.5 35.9375 15C36 13.5625 35.1875 12.25 34 11.5625ZM13.9375 30H7.3125C6.4375 28.125 5.9375 26.125 5.9375 24.0625V22.0625L6 22H12.1875C12.0625 22.6875 11.9375 23.375 11.9375 24C11.9375 26.25 12.625 28.3125 13.9375 30ZM4 20C2.875 20 2 19.125 2 18V12C2 10.9375 2.875 10 4 10H16V20H4ZM32 27.9375C32 28 31.9375 28 31.9375 28L26.625 23.75C24.125 21.75 21.125 20.5625 18 20.1875V9.875C21.125 9.5 24.125 8.25 26.625 6.3125L31.9375 2.0625C31.9375 2.0625 31.9375 2.0625 32 2.0625V27.9375Z" fill="#009CDE"/>
</svg>
