<svg width="41" height="32" viewBox="0 0 41 32" fill="none" xmlns="http://www.w3.org/2000/svg">
<path d="M14 16C18.375 16 22 12.4375 22 8C22 3.625 18.375 0 14 0C9.5625 0 6 3.625 6 8C6 12.4375 9.5625 16 14 16ZM14 2C17.25 2 20 4.75 20 8C20 11.3125 17.25 14 14 14C10.6875 14 8 11.3125 8 8C8 4.75 10.6875 2 14 2ZM39.375 14.8125L37.1875 12.625C36.8125 12.25 36.3125 12 35.8125 12C35.25 12 34.75 12.25 34.375 12.625L20.4375 26.5L20 30.8125C19.9375 31.4375 20.4375 32 21.0625 32C21.125 32 21.1875 32 21.1875 32L25.5 31.5625L39.375 17.625C40.1875 16.875 40.1875 15.5625 39.375 14.8125ZM24.5625 29.625L22.0625 29.9375L22.375 27.4375L32.1875 17.625L34.375 19.8125L24.5625 29.625ZM35.75 18.4375L33.5625 16.25L35.8125 14V14.0625L38 16.25L35.75 18.4375ZM8.375 20C9.625 20 10.8125 21 14 21C17.125 21 18.375 20 19.5625 20C20.875 20 22.0625 20.4375 23.0625 21.0625L24.5 19.6875C23.125 18.625 21.4375 18.0625 19.5625 18.0625C17.75 18.0625 16.9375 19.0625 14 19.0625C11 19.0625 10.1875 18.0625 8.375 18.0625C3.75 18 0 21.8125 0 26.4375V29C0 30.6875 1.3125 32 3 32H18.1875C18 31.5625 17.9375 31.0625 18 30.5625L18.0625 30H3C2.4375 30 2 29.5625 2 29V26.4375C2 22.875 4.8125 20 8.375 20Z" fill="#009CDE"/>
</svg>
