<svg width="32" height="32" viewBox="0 0 32 32" fill="none" xmlns="http://www.w3.org/2000/svg">
<path d="M21.8125 10.875L21.125 10.1875C20.9375 10 20.625 10 20.4375 10.1875L10.125 20.5C9.9375 20.6875 9.9375 21 10.125 21.1875L10.8125 21.875C11 22.0625 11.3125 22.0625 11.5 21.875L21.8125 11.5625C22 11.375 22 11.0625 21.8125 10.875ZM15 12C15 10.375 13.625 9 12 9C10.3125 9 9 10.375 9 12C9 13.6875 10.3125 15 12 15C13.625 15 15 13.6875 15 12ZM11 12C11 11.5 11.4375 11 12 11C12.5 11 13 11.5 13 12C13 12.5625 12.5 13 12 13C11.4375 13 11 12.5625 11 12ZM20 17C18.3125 17 17 18.375 17 20C17 21.6875 18.3125 23 20 23C21.625 23 23 21.6875 23 20C23 18.375 21.625 17 20 17ZM20 21C19.4375 21 19 20.5625 19 20C19 19.5 19.4375 19 20 19C20.5 19 21 19.5 21 20C21 20.5625 20.5 21 20 21ZM32 16C32 13.8125 30.75 11.75 28.875 10.6875C29.4375 8.5625 28.875 6.3125 27.3125 4.6875C25.6875 3.125 23.4375 2.5625 21.3125 3.125C20.25 1.25 18.1875 0 16 0C13.75 0 11.6875 1.25 10.625 3.125C8.5 2.5625 6.25 3.125 4.6875 4.6875C3.0625 6.3125 2.5 8.5625 3.0625 10.6875C1.1875 11.75 0 13.8125 0 16C0 18.25 1.1875 20.3125 3.0625 21.375C2.5 23.5 3.0625 25.75 4.6875 27.3125C6.3125 29 8.625 29.5 10.625 28.9375C11.6875 30.8125 13.75 32 16 32C18.1875 32 20.25 30.8125 21.3125 28.9375C23.375 29.5 25.625 29 27.3125 27.3125C28.875 25.75 29.4375 23.5 28.875 21.375C30.75 20.3125 32 18.25 32 16ZM26.25 20.3125C26.625 21.0625 28.125 23.6875 25.875 25.9375C24.0625 27.75 22.25 27.25 20.25 26.3125C19.9375 27.0625 19.1875 30 16 30C12.6875 30 11.9375 26.9375 11.6875 26.3125C9.6875 27.25 7.875 27.75 6.0625 25.9375C3.75 23.625 5.375 20.875 5.6875 20.3125C4.9375 20 2 19.1875 2 16C2 12.75 5.0625 12 5.6875 11.75C5.3125 11 3.8125 8.375 6.0625 6.125C8.375 3.8125 11.125 5.4375 11.6875 5.75C12 4.9375 12.8125 2 16 2C19.25 2 20 5.125 20.25 5.75C21 5.375 23.625 3.875 25.875 6.125C28.1875 8.4375 26.5625 11.1875 26.25 11.75C27.0625 12.0625 30 12.8125 30 16C30 19.3125 26.875 20.0625 26.25 20.3125Z" fill="#009CDE"/>
</svg>
