<svg width="40" height="32" viewBox="0 0 40 32" fill="none" xmlns="http://www.w3.org/2000/svg">
<path d="M38 0H12C10.875 0 10 0.9375 10 2V8C6.625 8 4 10.6875 4 14C4 17.375 6.625 20 10 20C13.3125 20 16 17.375 16 14C16 11.4375 14.3125 9.25 12 8.375V2H38V24H19.0625C19 24 19 23.9375 18.9375 23.875C17.875 22.25 16.0625 21.4375 14.125 21.4375C12.4375 21.4375 12 22 10 22C8 22 7.5625 21.4375 5.8125 21.4375C3.875 21.4375 2.0625 22.25 1 23.875C0.375 24.8125 0 25.9375 0 27.1875V29.5C0 30.9375 1.0625 32 2.5 32H17.5C18.875 32 20 30.9375 20 29.5V27.1875C20 26.8125 19.9375 26.4375 19.8125 26H38C39.0625 26 40 25.125 40 24V2C40 0.9375 39.0625 0 38 0ZM14 14C14 16.25 12.1875 18 10 18C7.75 18 6 16.25 6 14C6 11.8125 7.75 10 10 10C12.1875 10 14 11.8125 14 14ZM18 29.5C18 29.8125 17.75 30 17.5 30H2.5C2.1875 30 2 29.8125 2 29.5V27.1875C2 26.375 2.1875 25.625 2.625 24.9375C3.3125 24 4.5 23.4375 5.8125 23.4375C7.1875 23.4375 7.6875 24 10 24C12.25 24 12.8125 23.4375 14.125 23.4375C15.4375 23.4375 16.625 24 17.3125 24.9375C17.75 25.625 18 26.375 18 27.1875V29.5ZM21.125 9.5625C20.5625 9 19.625 9 19 9.5625L17.4375 11.1875C17.6875 11.875 17.875 12.6875 17.9375 13.5L20.0625 11.3125L24 15.25C24.3125 15.5625 24.6875 15.75 25.0625 15.75C25.4375 15.75 25.8125 15.5625 26.125 15.25L29.8125 11.625L31.875 13.6875C32.125 13.9375 32.4375 14 32.75 14C33.375 14 34 13.5625 34 12.8125V6.8125C34 6.375 33.625 6 33.1875 6H27.1875C26.125 6 25.5625 7.3125 26.3125 8.125L28.375 10.1875L25.0625 13.5L21.125 9.5625ZM32 8V10.9375L29.0625 8H32Z" fill="#009CDE"/>
</svg>
