<svg width="1440" height="917" viewBox="0 0 1440 917" fill="none" xmlns="http://www.w3.org/2000/svg">
<g clip-path="url(#clip0_850_6)">
<path d="M1.02271 916.255C-252.648 916.255 -458 711.527 -458 458.628C-458 205.728 -252.648 1 1.02271 1C254.693 1 460.046 205.728 460.046 458.628C460.046 711.527 254.693 916.255 1.02271 916.255ZM1.02271 213.757C-131.852 213.757 -240.568 322.142 -240.568 454.613C-240.568 587.084 -131.852 695.47 1.02271 695.47C133.898 695.47 242.614 587.084 242.614 454.613C242.614 322.142 133.898 213.757 1.02271 213.757Z" fill="#0062FF"/>
<path d="M1440.35 1L667.097 917.972H1440.35" fill="#0062FF"/>
</g>
<defs>
<clipPath id="clip0_850_6">
<rect width="1440" height="917" fill="white"/>
</clipPath>
</defs>
</svg>
